<?xml version="1.0" encoding="utf-8"?>
<!-- Generator: Adobe Illustrator 23.0.0, SVG Export Plug-In . SVG Version: 6.00 Build 0)  -->
<svg version="1.1" id="Calque_1" xmlns="http://www.w3.org/2000/svg" xmlns:xlink="http://www.w3.org/1999/xlink" x="0px" y="0px"
	 viewBox="0 0 134 92" style="enable-background:new 0 0 134 92;" xml:space="preserve">
<style type="text/css">
	.st0{fill:#FFFFFF;}
</style>
<path class="st0" d="M30.1,81.98c-0.02-2.2,0.03-4.41-0.02-6.61c-0.02-1.21-0.1-2.43-0.28-3.62c-0.46-3.12-1.75-5.73-4.72-7.23
	c-0.07-0.04-0.12-0.13-0.16-0.19c0.01-0.06,0.01-0.1,0.03-0.12c0.1-0.08,0.19-0.17,0.3-0.23c2.44-1.39,3.86-3.56,4.33-6.25
	c0.72-4.18,0.76-8.41-0.04-12.58c-0.76-3.97-3.29-6.42-7.24-7.27c-1.42-0.31-2.91-0.45-4.37-0.47c-3.9-0.06-7.79-0.01-11.69-0.04
	c-0.72-0.01-1.01,0.17-1.01,0.96c0.02,16.93,0.02,33.85,0,50.78c0,0.79,0.29,0.96,1.01,0.95c2.08-0.04,4.15-0.05,6.23,0.01
	c0.86,0.03,1.07-0.26,1.07-1.09c-0.03-6.32-0.02-12.65-0.02-18.97c0-0.26-0.08-0.55,0.02-0.76c0.12-0.25,0.38-0.62,0.59-0.62
	c1.24-0.02,2.5-0.03,3.73,0.11c1.83,0.22,3.06,1.3,3.5,3.08c0.27,1.1,0.4,2.27,0.42,3.41c0.06,3.16-0.02,6.32,0.06,9.48
	c0.03,1.49,0.28,2.98,0.45,4.46c0.07,0.64,0.42,0.89,1.1,0.88c2.23-0.04,4.47-0.01,6.71-0.02c0.24,0,0.47-0.06,0.82-0.11
	C29.92,87.29,30.12,84.62,30.1,81.98z M21.72,56.2c-0.15,3.39-1.69,4.85-5.06,4.87c-0.73,0.01-1.47-0.04-2.2,0.01
	c-0.71,0.05-0.95-0.21-0.93-0.93c0.02-1.2,0.02-2.39,0.02-3.59c0-1.2-0.01-2.39-0.01-3.59c0-1.18,0.01-2.36,0.01-3.54
	s0-2.36-0.02-3.54c-0.01-0.73,0.17-1.05,0.95-1.01c1.11,0.06,2.23-0.01,3.35,0.03c2.07,0.07,3.3,1.04,3.68,3.08
	c0.21,1.15,0.21,2.35,0.24,3.52C21.77,53.08,21.78,54.64,21.72,56.2z"/>
<path class="st0" d="M68.11,88.84c0.03-0.53-0.1-0.83-0.72-0.86c-0.68-0.03-0.77-0.39-0.59-1.05c0.28-1.04,0.5-2.12,0.53-3.18
	c0.08-2.2,0.02-4.4,0.02-6.61c0,0-0.01,0-0.01,0c0-2.39,0.05-4.79-0.01-7.18c-0.06-2.33-0.78-4.38-3.07-5.44
	c-2.01-0.93-4.1-0.89-6.13-0.02c-1.34,0.57-2.25,1.61-2.64,2.99c-0.27,0.97-0.43,2-0.45,3.01c-0.05,3.38-0.02,6.77-0.02,10.15
	c0,1.37-0.05,2.75,0.05,4.12c0.24,3.48,2.35,5.48,5.84,5.55c0.79,0.02,1.58-0.2,2.37-0.22c0.38-0.01,0.77,0.18,1.13,0.34
	c0.83,0.36,1.6,0.91,2.46,1.11c1.15,0.27,1.22,0.12,1.22-1.09C68.11,89.93,68.08,89.38,68.11,88.84z M63.26,84.74
	c-0.18,1.29-0.88,1.92-2.09,1.91c-1.2-0.01-1.96-0.67-2.03-1.96c-0.09-1.59-0.05-3.19-0.05-4.78c-0.01-0.96,0-1.91,0-2.87
	c0,0,0,0,0.01,0c0-2.36-0.03-4.72,0.01-7.08c0.03-1.71,0.91-2.53,2.41-2.36c0.85,0.1,1.43,0.54,1.63,1.38
	c0.1,0.43,0.16,0.88,0.16,1.32c0.01,4.53,0.01,9.06,0,13.59C63.31,84.17,63.3,84.46,63.26,84.74z"/>
<path class="st0" d="M56.55,45.92c-0.03-2.52-1.32-4.05-3.8-4.56c-0.68-0.14-1.39-0.21-2.09-0.22c-1.88-0.03-3.77,0.02-5.65-0.03
	c-0.77-0.02-0.98,0.25-0.97,0.99c0.04,2.97,0.01,5.94,0.02,8.91c0,3,0,6,0.01,9c0,0.39-0.12,0.91,0.54,0.89
	c2.68-0.05,5.38,0.07,8.03-0.23c2.62-0.29,3.9-1.97,3.93-4.61C56.59,52.68,56.58,49.3,56.55,45.92z M52.49,55.81
	c0,1.75-0.53,2.26-2.29,2.29c-2.07,0.03-2.07,0.03-2.07-2.05c0-1.66,0-3.32,0-4.97c0-1.04,0.01-2.07,0.01-3.11
	c0-1.04,0-2.07-0.02-3.11c-0.01-0.72,0.24-0.91,0.94-0.92c3.21-0.03,3.44,0.18,3.44,3.36C52.49,50.13,52.5,52.97,52.49,55.81z"/>
<path class="st0" d="M57.64,39.25c0.02-0.46,0.05-0.8,0.05-1.15c0-4.73,0-9.46,0-14.18c0-3.83-0.01-7.67,0.01-11.5
	c0-0.69-0.18-0.99-0.92-0.94c-0.83,0.05-1.67,0.07-2.49,0c-0.87-0.07-1.08,0.26-1.07,1.09c0.04,3.29,0,6.58,0.03,9.87
	c0.01,0.76-0.24,1.02-0.99,0.98c-0.96-0.05-1.92-0.07-2.87,0c-0.89,0.07-1.15-0.24-1.14-1.12c0.05-3.29,0-6.58,0.03-9.87
	c0.01-0.69-0.19-0.99-0.92-0.94c-0.76,0.05-1.54,0.07-2.3,0c-0.93-0.09-1.17,0.24-1.17,1.16c0.04,8.46,0.02,16.93,0.02,25.39
	c0,0.22-0.06,0.48,0.02,0.66c0.1,0.22,0.31,0.53,0.49,0.53c1.24,0.05,2.48,0.02,3.85,0.02c0-0.49,0-0.86,0-1.24
	c0-3.23,0.02-6.45-0.01-9.68c-0.01-0.72,0.18-1.05,0.97-1c0.89,0.06,1.79,0.01,2.68,0.01c1.32,0,1.32,0,1.32,1.29
	c0,3.23-0.01,6.45,0.02,9.68c0,0.31,0.3,0.88,0.49,0.89C55.02,39.29,56.29,39.25,57.64,39.25z"/>
<path class="st0" d="M3.13,35.27c0.2,0.08,0.28,0.15,0.37,0.15c4.53,0.01,9.07,0.01,13.6,0.03c0.52,0,0.64-0.27,0.63-0.72
	c-0.02-1.09-0.04-2.17,0.01-3.26c0.03-0.69-0.25-0.87-0.9-0.86c-1.98,0.03-3.96,0.01-5.94,0.01c-2.25,0-2.25,0-2.25-2.27
	c-0.01-8.56-0.03-17.11,0-25.67c0-0.86-0.25-1.11-1.08-1.06C6.48,1.69,5.39,1.71,4.31,1.62c-1.02-0.09-1.21,0.31-1.2,1.25
	C3.14,13.33,3.13,23.8,3.13,34.28C3.13,34.62,3.13,34.96,3.13,35.27z"/>
<path class="st0" d="M81.93,64.18c-1.01,0-1.87,0.05-2.72-0.02c-0.87-0.07-1.14,0.21-1.14,1.11c0.04,6.1,0.02,12.2,0.02,18.3
	c0,0.48,0,0.96-0.08,1.43c-0.19,1.1-0.88,1.64-2.01,1.65c-1.14,0-1.82-0.52-2.03-1.62c-0.08-0.43-0.09-0.89-0.09-1.33
	c-0.01-4.57,0-9.13,0-13.7c0-1.66-0.02-3.32,0.01-4.98c0.01-0.61-0.18-0.87-0.82-0.84c-0.73,0.04-1.47,0.06-2.2-0.01
	c-0.88-0.08-1.06,0.28-1.06,1.09c0.03,5.56,0.01,11.11,0.02,16.67c0,1.02-0.04,2.05,0.06,3.06c0.2,2.11,1,3.91,3.08,4.83
	c4.64,2.05,8.85-0.62,8.96-5.65c0-0.22,0-0.45,0-0.67c0-6.07,0-12.13,0-18.2C81.93,64.98,81.93,64.66,81.93,64.18z"/>
<path class="st0" d="M133.61,39.2c0-1.04-0.04-2.02,0.01-3c0.04-0.74-0.26-0.92-0.95-0.91c-1.91,0.04-3.83,0.01-5.75,0.01
	c-0.48,0-0.88-0.01-0.87-0.68c0.02-2.27-0.01-4.53,0.04-6.8c0-0.23,0.4-0.61,0.65-0.64c0.76-0.09,1.53-0.01,2.29-0.04
	c0.97-0.03,2.33,0.25,2.81-0.26c0.51-0.54,0.15-1.87,0.22-2.85c0.05-0.71-0.29-0.86-0.91-0.85c-1.4,0.03-2.81-0.02-4.21,0.02
	c-0.65,0.02-0.9-0.18-0.89-0.87c0.04-2.01,0.04-4.02,0-6.03c-0.01-0.68,0.22-0.89,0.88-0.88c1.95,0.03,3.89-0.01,5.84,0.02
	c0.61,0.01,0.88-0.17,0.85-0.81c-0.04-0.73-0.06-1.47,0-2.2c0.06-0.77-0.23-0.98-0.98-0.97c-3.22,0.04-6.45,0.01-9.67,0.01
	c-1.27,0-1.27,0-1.27,1.24c0,8.46,0,16.92,0,25.38c0,0.36,0.06,0.73,0.09,1.09C125.76,39.2,129.62,39.2,133.61,39.2z"/>
<path class="st0" d="M60.86,25.33c0,4.25,0.03,8.49-0.02,12.74c-0.01,1.01,0.31,1.23,1.25,1.21c2.55-0.06,5.11-0.01,7.66-0.03
	c0.95-0.01,2.3,0.29,2.75-0.2c0.51-0.57,0.19-1.86,0.27-2.83c0.06-0.72-0.21-0.94-0.92-0.93c-1.92,0.04-3.83,0.01-5.75,0.01
	c-0.48,0-0.88,0-0.88-0.68c0.02-2.27,0.02-4.53,0-6.8c0-0.49,0.2-0.68,0.69-0.67c0.77,0.02,1.53,0.02,2.3,0
	c0.95-0.02,1.9-0.07,2.85-0.11c0.05-1.01,0.09-2.02,0.16-3.02c0.05-0.63-0.21-0.84-0.83-0.83c-1.37,0.03-2.75-0.04-4.12,0.03
	c-0.87,0.04-1.09-0.28-1.06-1.1c0.05-1.88,0.05-3.77,0-5.65c-0.02-0.78,0.2-1.07,1.01-1.04c1.85,0.05,3.7-0.01,5.56,0.03
	c0.72,0.02,1.07-0.16,0.99-0.96c-0.06-0.66-0.06-1.34,0-2.01c0.07-0.82-0.26-1.03-1.04-1.02c-3.29,0.04-6.58,0.04-9.87-0.01
	c-0.8-0.01-1.03,0.23-1.02,1.03C60.87,16.77,60.86,21.05,60.86,25.33z"/>
<path class="st0" d="M51.01,71.2c2.18,0,2.18,0,1.89-2.16c0-0.03-0.01-0.06-0.01-0.09c-0.5-3.43-2.58-5.14-6.17-5.05
	c-3.31,0.08-5.29,1.97-5.65,5.31c-0.34,3.16,0.75,5.76,3,7.94c1.19,1.16,2.42,2.28,3.54,3.5c1.08,1.18,1.55,2.63,1.29,4.25
	c-0.18,1.12-0.85,1.68-1.96,1.71c-1.19,0.03-1.9-0.5-2.1-1.65c-0.1-0.59-0.11-1.21-0.08-1.81c0.04-0.66-0.19-0.96-0.87-0.89
	c-0.22,0.02-0.45,0-0.67,0c-2.49,0-2.5,0-2.28,2.49c0.17,1.88,0.75,3.57,2.42,4.67c4.1,2.69,9.25,0.16,9.63-4.69
	c0.24-3.02-0.85-5.49-2.97-7.58c-1.21-1.19-2.46-2.33-3.6-3.57c-1.11-1.21-1.56-2.7-1.26-4.35c0.21-1.19,0.99-1.75,2.19-1.63
	c1.13,0.11,1.69,0.8,1.78,2.21c0.09,1.4,0.09,1.4,1.5,1.4C50.76,71.2,50.88,71.2,51.01,71.2z"/>
<path class="st0" d="M84.75,90.04c0.42,0,0.77,0,1.11,0c2.4,0,4.79,0,7.19,0c2.82,0,2.8,0,2.74-2.84c-0.01-0.7-0.27-0.87-0.91-0.85
	c-1.66,0.03-3.32-0.04-4.98,0.03c-0.96,0.04-1.21-0.3-1.15-1.2c0.07-1.18,0-2.36,0.02-3.54c0.02-0.91-0.22-2.11,0.25-2.65
	c0.41-0.46,1.67-0.2,2.56-0.2c2.88-0.01,2.86,0,2.77-2.91c-0.02-0.65-0.27-0.82-0.86-0.8c-1.25,0.03-2.49-0.04-3.74,0.02
	c-0.82,0.04-1.03-0.27-1.01-1.05c0.05-1.69,0.07-3.39-0.01-5.08c-0.04-0.93,0.31-1.13,1.15-1.11c1.63,0.06,3.26-0.01,4.89,0.03
	c0.72,0.02,1.08-0.16,1-0.95c-0.06-0.6-0.06-1.22,0-1.82c0.08-0.79-0.28-0.96-1-0.95c-2.94,0.03-5.88,0.01-8.82,0.01
	c-1.27,0-1.27,0-1.27,1.23c0,7.83,0,15.65,0,23.48C84.7,89.24,84.73,89.58,84.75,90.04z"/>
<path class="st0" d="M71.11,49.3c0-2.4-0.02-4.79,0.01-7.19c0.01-0.72-0.16-1.07-0.96-1c-0.6,0.06-1.22,0.07-1.82,0
	c-0.92-0.11-1.11,0.29-1.11,1.14c0.04,4.63,0.02,9.26,0.01,13.89c0,1.61-0.73,2.27-2.33,2.17c-1.33-0.08-1.88-0.67-1.88-2.13
	c-0.01-4.7-0.02-9.39,0-14.09c0-0.75-0.21-1.04-0.98-0.98c-0.76,0.06-1.53,0.04-2.3,0c-0.64-0.03-0.83,0.23-0.82,0.84
	c0.03,1.76,0.01,3.51,0.01,5.27c0,3.07-0.04,6.13,0.02,9.2c0.04,2.35,1.25,3.93,3.52,4.4c1.35,0.28,2.8,0.34,4.17,0.19
	c2.95-0.32,4.41-2.06,4.43-5.01C71.12,53.77,71.1,51.53,71.11,49.3z"/>
<path class="st0" d="M99.28,39.25c0-0.52,0-0.93,0-1.34c0-7.06,0-14.12,0-21.18c0-1.29,0-1.29,1.32-1.29c0.83,0,1.66-0.02,2.49,0
	c0.52,0.01,0.77-0.16,0.75-0.71c-0.02-0.86-0.02-1.73,0-2.59c0.01-0.5-0.2-0.67-0.69-0.67c-4.06,0.01-8.11,0-12.17,0.03
	c-0.21,0-0.59,0.36-0.6,0.58c-0.07,0.89-0.08,1.79,0,2.68c0.02,0.24,0.41,0.62,0.65,0.64c0.92,0.08,1.85,0.09,2.78,0.02
	c0.9-0.07,1.13,0.26,1.12,1.13c-0.03,6.29-0.02,12.59-0.02,18.88c0,1.02-0.03,2.05,0.02,3.07c0.01,0.26,0.3,0.7,0.49,0.71
	C96.67,39.28,97.91,39.25,99.28,39.25z"/>
<path class="st0" d="M29.8,35.45c0-0.92-0.04-1.69,0.01-2.45c0.04-0.69-0.25-0.88-0.89-0.86c-1.5,0.03-3-0.03-4.5,0.02
	c-0.84,0.03-1.2-0.17-1.15-1.1c0.08-1.43,0.02-2.87,0.02-4.31c0-1.37,0-1.37,1.42-1.37c0.45,0,0.89,0,1.34,0
	c2.58,0,2.57,0,2.43-2.57c-0.03-0.53-0.2-0.74-0.74-0.73c-1.21,0.02-2.43-0.01-3.64,0.01c-0.53,0.01-0.83-0.11-0.82-0.74
	c0.03-1.66,0.03-3.32,0-4.98c-0.01-0.62,0.27-0.76,0.81-0.75c1.12,0.02,2.24,0.01,3.35,0.01c2.43,0,2.4,0,2.37-2.44
	c-0.01-0.69-0.24-0.87-0.89-0.86c-2.84,0.03-5.69,0.01-8.53,0.01c-0.25,0-0.5,0.04-0.77,0.07c-0.04,0.19-0.1,0.35-0.1,0.5
	c-0.01,7.28,0,14.57-0.01,21.85c0,0.56,0.25,0.71,0.76,0.7c1.34-0.02,2.68-0.01,4.03-0.01C26.07,35.45,27.86,35.45,29.8,35.45z"/>
<path class="st0" d="M38.46,62.27c-1.35,0-2.59-0.03-3.82,0.03c-0.19,0.01-0.49,0.44-0.51,0.69c-0.06,1.12-0.03,2.23-0.03,3.35
	c0,7.54,0.01,15.08-0.02,22.61c0,0.82,0.2,1.17,1.07,1.09c0.7-0.07,1.41-0.08,2.1,0c0.99,0.11,1.22-0.27,1.22-1.23
	c-0.04-8.46-0.02-16.93-0.02-25.39C38.46,63.09,38.46,62.75,38.46,62.27z"/>
<path class="st0" d="M57.64,39.25c-1.34,0-2.62,0.04-3.88-0.04c-0.19-0.01-0.49-0.58-0.49-0.89c-0.04-3.23-0.02-6.45-0.02-9.68
	c0-1.28,0-1.29-1.32-1.29c-0.89,0-1.79,0.05-2.68-0.01c-0.79-0.05-0.97,0.27-0.97,1c0.03,3.23,0.01,6.45,0.01,9.68
	c0,0.37,0,0.75,0,1.24c-1.37,0-2.61,0.02-3.85-0.02c-0.17-0.01-0.39-0.32-0.49-0.53c-0.08-0.19-0.02-0.44-0.02-0.66
	c0-8.46,0.01-16.93-0.02-25.39c0-0.92,0.24-1.25,1.17-1.16c0.76,0.08,1.53,0.06,2.3,0c0.73-0.05,0.93,0.25,0.92,0.94
	c-0.03,3.29,0.02,6.58-0.03,9.87c-0.01,0.89,0.25,1.19,1.14,1.12c0.95-0.07,1.92-0.05,2.87,0c0.75,0.04,0.99-0.22,0.99-0.98
	c-0.04-3.29,0.01-6.58-0.03-9.87c-0.01-0.83,0.21-1.16,1.07-1.09c0.82,0.07,1.66,0.06,2.49,0c0.73-0.05,0.92,0.25,0.92,0.94
	c-0.03,3.83-0.01,7.67-0.01,11.5c0,4.73,0,9.46,0,14.18C57.69,38.45,57.66,38.79,57.64,39.25z"/>
<path class="st0" d="M3.13,35.27c0-0.31,0-0.65,0-1c0-10.47,0.01-20.94-0.02-31.41c0-0.93,0.18-1.34,1.2-1.25
	c1.08,0.09,2.17,0.07,3.25,0.01c0.83-0.05,1.09,0.2,1.08,1.06c-0.03,8.55-0.01,17.11,0,25.67c0,2.27,0,2.27,2.25,2.27
	c1.98,0,3.96,0.02,5.94-0.01c0.64-0.01,0.93,0.17,0.9,0.86c-0.05,1.08-0.02,2.17-0.01,3.26c0.01,0.46-0.11,0.72-0.63,0.72
	c-4.53-0.01-9.06-0.02-13.6-0.03C3.41,35.42,3.32,35.35,3.13,35.27z"/>
<path class="st0" d="M81.93,64.18c0,0.49,0,0.8,0,1.12c0,6.07,0,12.13,0,18.2c0,0.22,0,0.45,0,0.67c-0.11,5.04-4.33,7.7-8.96,5.65
	c-2.08-0.92-2.88-2.71-3.08-4.83c-0.1-1.01-0.06-2.04-0.06-3.06c0-5.56,0.01-11.11-0.02-16.67c0-0.81,0.18-1.18,1.06-1.09
	c0.73,0.07,1.47,0.05,2.2,0.01c0.64-0.04,0.83,0.22,0.82,0.84c-0.03,1.66-0.01,3.32-0.01,4.98c0,4.57,0,9.13,0,13.7
	c0,0.45,0,0.9,0.09,1.33c0.21,1.11,0.89,1.63,2.03,1.62c1.13,0,1.82-0.55,2.01-1.65c0.08-0.47,0.08-0.95,0.08-1.43
	c0.01-6.1,0.02-12.2-0.02-18.3c-0.01-0.9,0.27-1.18,1.14-1.11C80.06,64.23,80.92,64.18,81.93,64.18z"/>
<path class="st0" d="M133.61,39.2c-3.99,0-7.84,0-11.81,0c-0.03-0.37-0.09-0.73-0.09-1.09c-0.01-8.46,0-16.92,0-25.38
	c0-1.24,0.01-1.24,1.27-1.24c3.22,0,6.45,0.02,9.67-0.01c0.75-0.01,1.04,0.2,0.98,0.97c-0.06,0.73-0.04,1.47,0,2.2
	c0.03,0.64-0.24,0.82-0.85,0.81c-1.95-0.03-3.89,0.01-5.84-0.02c-0.66-0.01-0.9,0.2-0.88,0.88c0.04,2.01,0.04,4.02,0,6.03
	c-0.01,0.69,0.24,0.88,0.89,0.87c1.4-0.04,2.81,0.01,4.21-0.02c0.63-0.01,0.96,0.14,0.91,0.85c-0.07,0.98,0.29,2.31-0.22,2.85
	c-0.48,0.52-1.84,0.23-2.81,0.26c-0.77,0.03-1.54-0.05-2.29,0.04c-0.25,0.03-0.65,0.41-0.65,0.64c-0.05,2.27-0.02,4.53-0.04,6.8
	c-0.01,0.68,0.39,0.68,0.87,0.68c1.92-0.01,3.83,0.02,5.75-0.01c0.69-0.01,0.99,0.17,0.95,0.91
	C133.57,37.18,133.61,38.16,133.61,39.2z"/>
<path class="st0" d="M60.86,25.33c0-4.28,0.02-8.56-0.02-12.84c-0.01-0.79,0.22-1.04,1.02-1.03c3.29,0.04,6.58,0.04,9.87,0.01
	c0.78-0.01,1.11,0.2,1.04,1.02c-0.06,0.67-0.06,1.35,0,2.01c0.08,0.8-0.27,0.97-0.99,0.96c-1.85-0.04-3.71,0.02-5.56-0.03
	c-0.82-0.02-1.03,0.26-1.01,1.04c0.05,1.88,0.05,3.77,0,5.65c-0.02,0.82,0.19,1.14,1.06,1.1c1.37-0.07,2.75,0,4.12-0.03
	c0.62-0.01,0.88,0.2,0.83,0.83c-0.07,1.01-0.11,2.01-0.16,3.02c-0.95,0.04-1.9,0.09-2.85,0.11c-0.77,0.02-1.53,0.02-2.3,0
	c-0.48-0.01-0.69,0.18-0.69,0.67c0.01,2.27,0.02,4.53,0,6.8c-0.01,0.68,0.4,0.68,0.88,0.68c1.92-0.01,3.83,0.02,5.75-0.01
	c0.71-0.01,0.99,0.21,0.92,0.93c-0.09,0.97,0.24,2.26-0.27,2.83c-0.44,0.49-1.79,0.2-2.75,0.2c-2.55,0.01-5.11-0.04-7.66,0.03
	c-0.94,0.02-1.26-0.2-1.25-1.21C60.89,33.82,60.86,29.58,60.86,25.33z"/>
<path class="st0" d="M51.01,71.2c-0.13,0-0.26,0-0.38,0c-1.41,0-1.41,0-1.5-1.4c-0.09-1.41-0.65-2.1-1.78-2.21
	c-1.2-0.11-1.98,0.44-2.19,1.63c-0.29,1.65,0.15,3.14,1.26,4.35c1.14,1.24,2.4,2.39,3.6,3.57c2.12,2.08,3.2,4.55,2.97,7.58
	c-0.38,4.86-5.53,7.38-9.63,4.69c-1.67-1.1-2.25-2.79-2.42-4.67c-0.22-2.49-0.21-2.49,2.28-2.49c0.22,0,0.45,0.02,0.67,0
	c0.68-0.08,0.9,0.23,0.87,0.89c-0.03,0.6-0.03,1.22,0.08,1.81c0.19,1.15,0.91,1.68,2.1,1.65c1.12-0.03,1.79-0.59,1.96-1.71
	c0.26-1.62-0.2-3.07-1.29-4.25c-1.12-1.22-2.35-2.34-3.54-3.5c-2.24-2.18-3.33-4.77-3-7.94c0.36-3.34,2.34-5.23,5.65-5.31
	c3.58-0.09,5.67,1.62,6.17,5.05c0,0.03,0.01,0.06,0.01,0.09C53.19,71.2,53.19,71.2,51.01,71.2z"/>
<path class="st0" d="M84.75,90.04c-0.02-0.46-0.05-0.8-0.05-1.15c0-7.83,0-15.65,0-23.48c0-1.23,0.01-1.23,1.27-1.23
	c2.94,0,5.88,0.02,8.82-0.01c0.72-0.01,1.07,0.16,1,0.95c-0.06,0.6-0.06,1.22,0,1.82c0.08,0.8-0.28,0.97-1,0.95
	c-1.63-0.04-3.26,0.03-4.89-0.03c-0.85-0.03-1.2,0.18-1.15,1.11c0.08,1.69,0.06,3.39,0.01,5.08c-0.02,0.78,0.18,1.09,1.01,1.05
	c1.24-0.06,2.49,0.01,3.74-0.02c0.6-0.01,0.84,0.15,0.86,0.8c0.09,2.91,0.11,2.9-2.77,2.91c-0.89,0-2.15-0.26-2.56,0.2
	c-0.48,0.53-0.23,1.74-0.25,2.65c-0.03,1.18,0.05,2.37-0.02,3.54c-0.05,0.9,0.2,1.24,1.15,1.2c1.66-0.08,3.32,0,4.98-0.03
	c0.64-0.01,0.9,0.16,0.91,0.85c0.05,2.84,0.07,2.84-2.74,2.84c-2.4,0-4.79,0-7.19,0C85.52,90.04,85.18,90.04,84.75,90.04z"/>
<path class="st0" d="M71.1,49.3c0,2.24,0.01,4.47,0,6.71c-0.02,2.96-1.48,4.7-4.43,5.01c-1.37,0.15-2.82,0.09-4.17-0.19
	c-2.26-0.47-3.47-2.06-3.52-4.4c-0.06-3.07-0.02-6.13-0.02-9.2c0-1.76,0.02-3.51-0.01-5.27c-0.01-0.61,0.18-0.87,0.82-0.84
	c0.76,0.04,1.54,0.05,2.3,0c0.76-0.06,0.98,0.24,0.98,0.98c-0.03,4.7-0.02,9.39,0,14.09c0,1.46,0.55,2.05,1.88,2.13
	c1.59,0.1,2.32-0.56,2.33-2.17c0.01-4.63,0.02-9.26-0.01-13.89c-0.01-0.85,0.18-1.25,1.11-1.14c0.6,0.07,1.22,0.06,1.82,0
	c0.79-0.08,0.97,0.27,0.96,1C71.08,44.5,71.11,46.9,71.1,49.3z"/>
<path class="st0" d="M99.28,39.25c-1.37,0-2.61,0.03-3.84-0.03c-0.18-0.01-0.47-0.45-0.49-0.71c-0.06-1.02-0.02-2.04-0.02-3.07
	c0-6.29-0.02-12.59,0.02-18.88c0-0.87-0.23-1.2-1.12-1.13c-0.92,0.07-1.86,0.06-2.78-0.02c-0.24-0.02-0.63-0.4-0.65-0.64
	c-0.08-0.89-0.07-1.79,0-2.68c0.02-0.22,0.39-0.58,0.6-0.58c4.06-0.03,8.11-0.02,12.17-0.03c0.49,0,0.7,0.17,0.69,0.67
	c-0.02,0.86-0.03,1.73,0,2.59c0.02,0.55-0.24,0.72-0.75,0.71c-0.83-0.02-1.66-0.01-2.49,0c-1.32,0-1.32,0-1.32,1.29
	c0,7.06,0,14.12,0,21.18C99.28,38.32,99.28,38.73,99.28,39.25z"/>
<path class="st0" d="M29.8,35.45c-1.95,0-3.73,0-5.51,0c-1.34,0-2.68-0.01-4.03,0.01c-0.51,0.01-0.76-0.14-0.76-0.7
	c0.01-7.28,0.01-14.57,0.01-21.85c0-0.15,0.06-0.3,0.1-0.5c0.27-0.02,0.52-0.07,0.77-0.07c2.84,0,5.69,0.01,8.53-0.01
	c0.65-0.01,0.89,0.18,0.89,0.86c0.03,2.44,0.05,2.44-2.37,2.44c-1.12,0-2.24,0.02-3.35-0.01c-0.54-0.01-0.82,0.13-0.81,0.75
	c0.03,1.66,0.03,3.32,0,4.98c-0.01,0.63,0.29,0.74,0.82,0.74c1.21-0.02,2.43,0.01,3.64-0.01c0.53-0.01,0.71,0.2,0.74,0.73
	c0.13,2.57,0.15,2.57-2.43,2.57c-0.45,0-0.89,0-1.34,0c-1.42,0-1.42,0-1.42,1.37c0,1.44,0.06,2.88-0.02,4.31
	c-0.05,0.93,0.31,1.14,1.15,1.1c1.5-0.06,3,0.01,4.5-0.02c0.65-0.01,0.94,0.17,0.89,0.86C29.77,33.76,29.8,34.52,29.8,35.45z"/>
<path class="st0" d="M38.46,62.27c0,0.47,0,0.82,0,1.16c0,8.46-0.02,16.93,0.02,25.39c0,0.96-0.23,1.34-1.22,1.23
	c-0.69-0.08-1.41-0.07-2.1,0c-0.87,0.08-1.07-0.27-1.07-1.09c0.03-7.54,0.02-15.08,0.02-22.61c0-1.12-0.03-2.24,0.03-3.35
	c0.01-0.25,0.32-0.68,0.51-0.69C35.87,62.24,37.11,62.27,38.46,62.27z"/>
<path class="st0" d="M118.85,31.8c-0.03-2.4-0.28-4.69-2.8-6.15c1.47-0.81,2.4-1.97,2.5-3.46c0.15-2.21,0.2-4.47-0.04-6.66
	c-0.22-2.02-1.63-3.28-3.62-3.75c-0.8-0.19-1.64-0.27-2.46-0.29c-1.85-0.04-3.71,0.03-5.56-0.03c-0.87-0.03-1.14,0.21-1.13,1.11
	c0.04,6.36,0.02,12.71,0.02,19.07c0,2.2,0.03,4.41-0.02,6.61c-0.02,0.82,0.27,1.07,1.05,1.01c0.73-0.05,1.47-0.07,2.2,0
	c0.96,0.1,1.17-0.29,1.16-1.19c-0.05-3.07,0-6.13-0.03-9.2c-0.01-0.69,0.17-0.95,0.91-0.95c2.55,0,3.42,0.78,3.47,3.33
	c0.04,1.79,0,3.58,0.03,5.37c0.01,0.67,0.08,1.34,0.22,1.99c0.05,0.24,0.37,0.59,0.58,0.6c1.26,0.06,2.53,0.03,3.66,0.03
	C118.93,36.69,118.88,34.25,118.85,31.8z M114.38,21.8c-0.15,1.42-0.88,2.07-2.32,2.18c-1.95,0.14-1.95,0.14-1.95-1.77
	c0-1.97,0.02-3.95-0.01-5.92c-0.01-0.59,0.15-0.84,0.8-0.86c2.94-0.1,3.54,0.45,3.55,3.42c0,0.25,0,0.51,0,0.76
	c-0.02,0-0.04,0-0.06,0C114.39,20.34,114.45,21.08,114.38,21.8z"/>
<path class="st0" d="M103.55,0.83c-27.96,0-55.83,0-83.69,0c0,0,0,0,0,0c0,2.88,0,5.67,0,8.54c0,0,0,0,0,0c0.19,0,0.36,0,0.53,0
	c0.17,0,0.32,0,0.48,0c1.66,0,3.32,0,4.98,0.01c1.66,0,3.32,0,4.98-0.02c0.17,0,0.32,0.01,0.45,0.04c0.12,0.03,0.23,0.08,0.3,0.15
	c0.15,0.14,0.21,0.37,0.19,0.73c-0.02,0.37-0.03,0.73-0.02,1.1c0,0.37,0.01,0.74,0.01,1.1c0,15.81,0.01,31.63-0.02,47.44
	c0,0.98,0.27,1.25,1.24,1.22c0,0,0,0,0,0s0,0,0,0c1.17-0.03,2.33-0.04,3.5-0.04c0.39,0,0.78,0,1.17,0c0.78,0,1.55,0.01,2.33,0.01h0
	h0c0.64,0,0.96,0,1.12-0.17c0.16-0.17,0.16-0.5,0.16-1.16c0-16.42,0.01-32.84-0.02-49.26c0-0.46,0.06-0.76,0.24-0.94
	c0.18-0.18,0.47-0.25,0.94-0.25c3.56,0.02,7.12,0.02,10.69,0.02c3.56,0,7.12,0,10.69,0c0.07,0,0.15,0.01,0.23,0.01
	c0.13,0.01,0.26,0.01,0.41,0.02c0.11,0.01,0.22,0.02,0.36,0.02c-0.08,0.18-0.16,0.33-0.23,0.48c-0.15,0.31-0.29,0.61-0.46,0.95
	c0.56-0.01,1.12,0.06,1.65,0.06c0.7,0.01,1.35-0.09,1.9-0.62c0.14-0.13,0.27-0.29,0.39-0.48c0.16-0.24,0.59-0.42,0.9-0.43
	c1.02-0.01,2.04-0.01,3.05-0.01c0.34,0,0.68,0,1.02,0c1.36,0,2.72,0.01,4.07,0.02c0.08,0,0.15,0.09,0.27,0.16
	c-0.13,0.2-0.26,0.39-0.41,0.61c-0.14,0.21-0.3,0.45-0.49,0.73h0c0.13,0,0.24,0,0.37,0c0.37,0,0.72-0.01,1.04-0.01
	c0.22,0,0.43,0,0.64,0c0.21,0,0.41,0.01,0.62,0.03h0c0.78,0.06,1.31-0.21,1.77-0.85c0.36-0.49,0.72-0.73,1.09-0.73
	c0.19,0,0.37,0.06,0.57,0.18c0.19,0.12,0.39,0.29,0.59,0.53c0.27,0.3,0.57,0.77,0.89,0.8c0.56,0.05,1.12,0.06,1.7,0.06
	c0.58,0,1.19-0.02,1.83-0.02c-0.1-0.14-0.18-0.27-0.27-0.39c-0.25-0.37-0.47-0.69-0.75-1.11c5.79,0,11.39,0,17.03,0
	C103.55,6.46,103.55,3.69,103.55,0.83z M36.46,58.31c-1.42-0.03-2.63-1.07-2.65-2.26c-0.01-1.29,1.22-2.31,2.78-2.29
	c1.49,0.02,2.71,1.05,2.7,2.29C39.29,57.3,37.98,58.34,36.46,58.31z"/>
<path class="st0" d="M85.26,12.12c-0.09-0.55-0.37-0.64-0.85-0.63c-1.5,0.02-3,0.05-4.5-0.02c-0.88-0.04-1.2,0.24-1.34,1.12
	c-1.21,7.76-2.47,15.52-3.71,23.27c-0.17,1.09-0.32,2.17-0.5,3.4c1.15,0,2.14-0.03,3.12,0.01c0.64,0.03,0.92-0.19,0.99-0.84
	c0.13-1.17,0.36-2.34,0.51-3.51c0.07-0.5,0.27-0.72,0.8-0.71c1.31,0.03,2.62,0.03,3.93,0c0.56-0.01,0.8,0.2,0.87,0.76
	c0.15,1.2,0.32,2.41,0.55,3.6c0.05,0.26,0.37,0.65,0.59,0.66c1.23,0.06,2.47,0.03,3.75,0.03c0.05-0.24,0.08-0.3,0.07-0.36
	C88.09,29.97,86.67,21.04,85.26,12.12z M79.65,30.37c0.66-4.4,1.3-8.71,1.95-13.03c0.09,0,0.18,0,0.28,0
	c0.65,4.31,1.3,8.62,1.96,13.03C82.4,30.37,81.09,30.37,79.65,30.37z"/>
</svg>
