<svg id="Calque_1" data-name="Calque 1" xmlns="http://www.w3.org/2000/svg" viewBox="0 0 91 74"><defs><style>.cls-1{fill:#fff;}</style></defs><title>photo_fil</title><path class="cls-1" d="M83.39,73.5H7.4A6.9,6.9,0,0,1,.5,66.6V17.75a6.9,6.9,0,0,1,6.9-6.89H25.25C26.6,5.55,28.39,0,34.54,0H56.25c6.14,0,7.93,5.55,9.28,10.86H83.39a6.9,6.9,0,0,1,6.89,6.89V66.6A6.9,6.9,0,0,1,83.39,73.5ZM7.4,13.8a4,4,0,0,0-4,3.95V66.6a4,4,0,0,0,4,4h76a4,4,0,0,0,4-4V17.75a4,4,0,0,0-4-3.95H63.24L63,12.68c-1.51-6.06-2.72-9.74-6.71-9.74H34.54c-4,0-5.2,3.68-6.72,9.74l-.28,1.12Zm38,50.88a22.5,22.5,0,1,1,22.5-22.5A22.52,22.52,0,0,1,45.39,64.68Zm0-42.06A19.56,19.56,0,1,0,65,42.18,19.58,19.58,0,0,0,45.39,22.62Zm35.28,7.46H75.24a4.19,4.19,0,0,1,0-8.37h5.43a4.19,4.19,0,1,1,0,8.37Zm-5.43-5.43a1.25,1.25,0,0,0,0,2.49h5.43a1.25,1.25,0,1,0,0-2.49Z"/></svg>