<svg id="Calque_1" data-name="Calque 1" xmlns="http://www.w3.org/2000/svg" viewBox="0 0 91 74"><defs><style>.cls-1{fill:#fff;}</style></defs><title>photo_full</title><path class="cls-1" d="M27,42.72A18.48,18.48,0,1,0,45.5,24.23,18.48,18.48,0,0,0,27,42.72ZM85.31,11.44H65.41C64,5.75,62.56.06,56.87.06H34.12c-5.68,0-7.1,5.69-8.53,11.38H5.69A5.71,5.71,0,0,0,0,17.13V68.31A5.71,5.71,0,0,0,5.69,74H85.31A5.71,5.71,0,0,0,91,68.31V17.13A5.71,5.71,0,0,0,85.31,11.44ZM45.5,68A25.24,25.24,0,1,1,70.74,42.72,25.24,25.24,0,0,1,45.5,68Zm37-39.46H76.78a2.84,2.84,0,0,1-2.84-2.84h0a2.85,2.85,0,0,1,2.84-2.85h5.69a2.85,2.85,0,0,1,2.84,2.85h0A2.84,2.84,0,0,1,82.47,28.5Z"/></svg>