<svg id="Calque_1" data-name="Calque 1" xmlns="http://www.w3.org/2000/svg" viewBox="0 0 91 74"><defs><style>.cls-1{fill:#ffd3a2;}</style></defs><title>telechargement_full</title><path class="cls-1" d="M76.36,36.63a1.36,1.36,0,0,0-1.27-.85H60V1.38A1.37,1.37,0,0,0,58.64,0h-22a1.37,1.37,0,0,0-1.37,1.38v34.4H20.11a1.37,1.37,0,0,0-1,2.34L46.59,65.67a1.39,1.39,0,0,0,1.95,0L76.07,38.13A1.37,1.37,0,0,0,76.36,36.63Z"/><path class="cls-1" d="M76.46,74H18.32a1.32,1.32,0,0,1,0-2.64H76.46a1.32,1.32,0,1,1,0,2.64Z"/></svg>