<svg id="Calque_1" data-name="Calque 1" xmlns="http://www.w3.org/2000/svg" viewBox="0 0 91 74"><defs><style>.cls-1{fill:#ffd3a2;}</style></defs><title>telechargement_fil</title><path class="cls-1" d="M46.71,66.6a2.61,2.61,0,0,1-1.85-.77L18.25,39.13a2.62,2.62,0,0,1,1.85-4.46H33.49V2.61A2.61,2.61,0,0,1,36.11,0H57.44a2.61,2.61,0,0,1,2.62,2.61V34.67H73.39a2.62,2.62,0,0,1,2.42,1.62h0a2.62,2.62,0,0,1-.57,2.85L48.56,65.83A2.6,2.6,0,0,1,46.71,66.6ZM20.1,37.24h0l0,.09L46.67,64,73.43,37.33l1.19-.55-1.18.49a.05.05,0,0,0,0,0H57.5V2.61l-21.39,0-.06,34.68Z"/><path class="cls-1" d="M74.72,73H18.37a1.28,1.28,0,0,1,0-2.56H74.72a1.28,1.28,0,0,1,0,2.56Z"/></svg>