<svg id="Calque_1" data-name="Calque 1" xmlns="http://www.w3.org/2000/svg" viewBox="0 0 91 74"><defs><style>.cls-1{fill:#fff;}</style></defs><title>video_fil</title><path class="cls-1" d="M45.38,73.92a37,37,0,1,1,37-37A37,37,0,0,1,45.38,73.92Zm0-71A34.06,34.06,0,1,0,79.44,37,34.1,34.1,0,0,0,45.38,2.9ZM38.72,51.73a3.67,3.67,0,0,1-3.67-3.67V25.86a3.68,3.68,0,0,1,5.62-3.11l17.75,11.1a3.66,3.66,0,0,1,0,6.22h0L40.67,51.17A3.74,3.74,0,0,1,38.72,51.73Zm0-26.64a.71.71,0,0,0-.37.1.76.76,0,0,0-.4.67v22.2a.77.77,0,0,0,1.18.65L56.89,37.62a.8.8,0,0,0,.36-.66.77.77,0,0,0-.36-.65L39.13,25.21A.75.75,0,0,0,38.72,25.09Z"/></svg>